<?xml version="1.0" standalone="no"?>
<!DOCTYPE svg PUBLIC "-//W3C//DTD SVG 20010904//EN"
 "http://www.w3.org/TR/2001/REC-SVG-20010904/DTD/svg10.dtd">
<svg version="1.0" xmlns="http://www.w3.org/2000/svg"
 width="1266.000000pt" height="414.000000pt" viewBox="0 0 1266.000000 414.000000"
 preserveAspectRatio="xMidYMid meet">

<g transform="translate(0.000000,414.000000) scale(0.100000,-0.100000)"
fill="#000000" stroke="none">
<path d="M10615 3039 c-231 -45 -392 -161 -460 -329 -23 -59 -32 -237 -15
-322 26 -134 106 -236 236 -301 89 -44 158 -66 379 -121 254 -62 334 -95 406
-165 67 -66 79 -98 79 -223 0 -105 -19 -157 -85 -227 -51 -54 -141 -103 -223
-120 -77 -16 -261 -14 -349 5 -91 18 -198 60 -297 114 -40 22 -82 40 -94 40
-12 0 -36 -13 -54 -29 -28 -25 -33 -36 -33 -74 0 -60 17 -76 139 -137 405
-200 942 -136 1121 133 60 90 78 156 79 292 2 173 -24 261 -102 347 -88 98
-216 155 -516 230 -274 68 -346 97 -417 168 -49 49 -58 64 -69 115 -25 122 12
251 93 320 158 135 445 149 727 36 55 -23 107 -41 114 -41 24 0 74 49 81 80
11 52 -16 85 -108 129 -131 63 -225 82 -417 86 -91 2 -187 0 -215 -6z"/>
<path d="M7399 3001 c-18 -19 -29 -40 -29 -58 0 -44 498 -1805 518 -1833 23
-32 78 -60 117 -60 40 0 90 32 110 71 9 17 115 383 236 812 120 430 222 790
226 800 5 11 84 -257 227 -775 121 -436 227 -808 235 -827 25 -53 63 -76 126
-76 45 0 58 4 82 27 16 15 34 42 40 60 13 38 498 1759 507 1801 5 22 1 34 -23
58 -27 26 -37 30 -78 27 -40 -3 -50 -8 -68 -34 -12 -18 -111 -363 -240 -833
-147 -537 -222 -796 -227 -784 -4 10 -107 369 -228 797 -122 429 -226 788
-231 798 -30 56 -142 77 -193 37 -14 -11 -31 -29 -36 -39 -5 -10 -104 -353
-220 -762 -116 -408 -218 -768 -227 -798 -14 -50 -16 -53 -24 -30 -5 14 -105
383 -223 820 -174 643 -219 798 -237 813 -13 10 -38 17 -66 17 -36 0 -50 -6
-74 -29z"/>
<path d="M4193 3009 c-51 -15 -80 -59 -88 -131 -3 -35 -5 -434 -3 -888 3 -811
3 -826 24 -860 38 -65 35 -65 484 -65 343 0 416 3 477 17 105 24 199 72 259
133 96 96 134 206 134 394 0 172 -30 269 -110 348 -56 57 -113 88 -211 117
-46 14 -77 25 -69 25 8 1 43 14 77 31 86 40 154 106 189 183 24 54 28 78 32
177 10 285 -92 435 -343 507 -51 14 -118 17 -440 19 -221 2 -393 -1 -412 -7z
m750 -183 c130 -36 203 -96 228 -190 15 -54 15 -190 -1 -245 -48 -177 -198
-226 -665 -219 l-200 3 -3 325 c-1 179 0 331 3 339 8 21 556 10 638 -13z m62
-850 c84 -25 171 -73 206 -115 43 -52 59 -118 59 -241 0 -176 -42 -265 -150
-322 -97 -50 -163 -58 -507 -58 l-313 0 0 381 0 381 323 -5 c265 -3 333 -7
382 -21z"/>
<path d="M2155 2824 c-216 -48 -422 -195 -533 -379 -36 -59 -38 -61 -67 -53
-16 5 -69 9 -116 9 -149 2 -267 -47 -370 -152 -61 -62 -123 -171 -134 -239 -4
-25 -13 -43 -23 -47 -74 -23 -169 -81 -225 -137 -301 -301 -173 -797 238 -923
57 -17 117 -18 1040 -18 l980 0 71 26 c177 65 305 200 358 378 10 33 16 91 16
146 0 160 -50 278 -167 394 l-75 73 -3 132 c-3 157 -23 237 -93 371 -38 73
-66 109 -147 191 -90 90 -111 106 -205 152 -58 29 -132 59 -165 68 -87 23
-293 28 -380 8z m284 -85 c200 -32 371 -141 492 -312 91 -130 144 -342 122
-492 -11 -78 -16 -70 91 -158 237 -196 198 -582 -75 -740 -103 -60 -64 -58
-1135 -55 l-980 3 -78 38 c-140 70 -232 193 -257 344 -32 193 74 393 254 479
39 19 79 34 87 34 32 0 50 26 61 85 24 132 110 245 231 304 85 42 198 52 297
27 35 -9 71 -14 81 -11 9 3 26 26 39 53 66 135 184 256 320 326 148 76 294
101 450 75z"/>
<path d="M6235 2501 c-121 -29 -199 -73 -281 -155 -53 -53 -83 -93 -103 -138
-54 -118 -63 -168 -68 -383 -4 -175 -2 -212 16 -300 50 -245 191 -400 421
-462 93 -25 320 -24 410 1 217 62 359 206 416 421 16 58 19 107 19 295 0 256
-7 298 -75 436 -70 143 -196 241 -367 285 -99 25 -287 25 -388 0z m340 -176
c17 -4 50 -18 75 -31 160 -80 220 -220 220 -509 0 -164 -17 -266 -57 -351 -29
-61 -99 -136 -154 -164 -94 -48 -252 -64 -362 -35 -156 41 -248 128 -294 280
-15 50 -18 95 -18 265 0 184 2 212 22 275 40 128 101 198 218 251 84 39 239
47 350 19z"/>
</g>
</svg>
